<?xml version="1.0" standalone="no"?>
<!DOCTYPE svg PUBLIC "-//W3C//DTD SVG 20010904//EN"
 "http://www.w3.org/TR/2001/REC-SVG-20010904/DTD/svg10.dtd">
<svg version="1.0" xmlns="http://www.w3.org/2000/svg"
 width="1024.000000pt" height="1024.000000pt" viewBox="0 0 1024.000000 1024.000000"
 preserveAspectRatio="xMidYMid meet">

<g transform="translate(0.000000,1024.000000) scale(0.100000,-0.100000)"
fill="#000000" stroke="none">
<path d="M2175 8800 c-231 -47 -424 -154 -586 -326 -138 -147 -230 -346 -264
-575 -13 -86 -15 -460 -15 -2798 0 -2920 -3 -2774 52 -2941 85 -262 264 -478
508 -613 90 -49 259 -104 377 -122 149 -23 5602 -22 5741 0 539 88 888 463
932 1004 6 76 9 1100 9 2738 -1 2112 -4 2638 -14 2723 -55 430 -343 766 -760
886 -154 45 -68 44 -3060 43 -2698 -1 -2834 -2 -2920 -19z m1094 -1465 c238
-26 333 -41 526 -81 534 -111 1007 -335 1123 -533 l27 -46 -4 -1870 c-1 -1028
-5 -1872 -8 -1875 -2 -3 -9 4 -16 15 -21 38 -103 118 -172 170 -100 74 -197
129 -332 190 -433 193 -943 307 -1498 335 -234 12 -289 30 -321 107 -12 27
-14 325 -14 1760 0 1625 1 1730 18 1763 20 40 62 67 124 79 87 17 319 11 547
-14z m4305 0 c22 -11 49 -33 60 -48 l21 -29 -4 -1736 c-4 -1894 -1 -1789 -60
-1831 -41 -29 -159 -51 -275 -51 -106 0 -377 -28 -541 -56 -134 -22 -433 -98
-592 -149 -253 -81 -483 -187 -653 -300 -91 -60 -210 -171 -210 -195 0 -6 -5
-10 -10 -8 -7 2 -10 621 -10 1869 0 1664 2 1871 16 1904 53 127 320 297 656
419 403 146 944 237 1378 233 163 -2 190 -4 224 -22z"/>
</g>
</svg>
